<svg xmlns="http://www.w3.org/2000/svg" xmlns:xlink="http://www.w3.org/1999/xlink" version="1.1" x="0px" y="0px" viewBox="0 0 569.3 166.3" xml:space="preserve">
  <style type="text/css">
    
	.logo--shape{fill:#FFFFFF;}

  </style>
  <g>
    <path class="logo--shape" d="M78.1 99.3h-0.3c-6.7 8.2-17.8 12.8-30.6 12.8C18.6 112.1 0 96.4 0 68.4c0-23.3 17.2-42.2 46.8-42.2 14 0 24.7 4.6 30 12.3h0.3V0.3h31.5v108.5H78.1V99.3zM54.7 48.2c-14.4 0-22.3 7.1-22.3 20.5 0 13.4 7.9 20.5 22.3 20.5 14.7 0 22.5-8 22.5-20.5C77.2 56.2 69.4 48.2 54.7 48.2z"/>
    <path class="logo--shape" d="M170.3 25c36.4 0 56.5 15 56.5 43.6 0 28.5-20.1 43.6-56.5 43.6 -36.4 0-56.5-15-56.5-43.6C113.8 40 133.9 25 170.3 25zM147.1 68.5c0 15.2 8.9 22.8 23.2 22.8 14.3 0 23.2-7.6 23.2-22.8 0-15.2-8.9-22.8-23.2-22.8C156.1 45.8 147.1 53.4 147.1 68.5z"/>
    <path class="logo--shape" d="M231.4 0H263v56.4l31.5-28.1h42.7L300 58.1l40.7 50.7h-42.8L275 78.4 263 88v20.8h-31.5V0z"/>
    <path class="logo--shape" d="M339.8 0h31.5v56.4l31.5-28.1h42.7l-37.2 29.9 40.7 50.7h-42.8l-22.9-30.5 -12 9.7v20.8h-31.5V0z"/>
  </g>
  <g>
    <path class="logo--shape" d="M19.4 148.5c-0.4-2.6-2.5-4.8-6.4-4.8 -4.4 0-7.3 2.6-7.3 7.7 0 3.6 1.9 7.2 7.1 7.2 3.3 0 5.8-1.6 6.6-5.2h2.8c-0.4 4.2-4 7.7-9.4 7.7 -4.7 0-9.9-2.6-9.9-9.9 0-5.5 3.4-9.8 9.8-9.8 3.8 0 8.9 1.6 9.4 7.2H19.4z"/>
    <path class="logo--shape" d="M26.7 154.4c0.2 2.8 2.7 4.4 5.1 4.4 1.5 0 3.6-0.5 4.4-2.4h2.8c-1.3 3.3-4.4 4.7-7.1 4.7 -5.4 0-8-3.4-8-7.4 0-4 2.6-7.4 8-7.4 3.6 0 7.5 2.1 7.5 7.8v0.3H26.7zM36.6 152.4c-0.4-2.5-2.3-3.9-4.8-3.9 -2.4 0-4.6 1.4-5 3.9H36.6z"/>
    <path class="logo--shape" d="M41.8 146.8h2.6v2.1h0.1c1.2-1.9 3.4-2.6 5.4-2.6 3.3 0 5.8 1.4 5.8 4.9v9.4H53v-8.9c0-2-1.3-3.2-4.1-3.2 -2.4 0-4.5 1.4-4.5 4.1v7.9h-2.6V146.8z"/>
    <path class="logo--shape" d="M59.8 142.5h2.6v4.2h3.9v2.1h-3.9v8.5c0 1.1 0.8 1.5 2.1 1.5 0.6 0 1.2-0.1 1.8-0.2v2.2c-0.9 0.2-1.9 0.2-2.9 0.2 -2.6 0-3.6-1.3-3.6-3.3v-8.9h-2.8v-2.1h2.8V142.5z"/>
    <path class="logo--shape" d="M68 146.8h2.6v2.5h0.1c1.2-2.2 3-3 4.7-3 0.7 0 1 0 1.5 0.2v2.8c-0.7-0.2-1.2-0.3-1.9-0.3 -2.6 0-4.4 1.5-4.4 4.5v7H68V146.8z"/>
    <path class="logo--shape" d="M92.2 160.5h-2.6v-2.1h-0.1c-1.2 1.9-3.4 2.6-5.4 2.6 -3.3 0-5.8-1.4-5.8-4.9v-9.4H81v8.9c0 2 1.3 3.2 4.1 3.2 2.4 0 4.5-1.4 4.5-4.1v-7.9h2.6V160.5z"/>
    <path class="logo--shape" d="M116.2 151.8c0-2.5-1.6-3.3-3.3-3.3 -2.4 0-4.5 1.1-4.5 3.7v8.3h-2.6v-8.8c0-2.5-1.6-3.3-3.3-3.3 -2.4 0-4.5 1.4-4.5 4.1v7.9h-2.6v-13.8h2.6v2.1H98c1.2-1.9 3.4-2.6 5.4-2.6 1.8 0 3.6 0.7 4.7 2.6 1.3-1.6 2.9-2.6 5.6-2.6 1.4 0 5.2 0.7 5.2 4.9v9.4h-2.6V151.8z"/>
    <path class="logo--shape" d="M131.2 144.7c0-2.6 1.6-3.4 4.2-3.4 0.8 0 1.5 0.1 2.3 0.2v2.1c-0.5 0-1-0.1-1.5-0.1 -1.7 0-2.4 0.2-2.4 1.3v1.9h3.9v2.1h-3.9v11.7h-2.6v-11.7h-2.8v-2.1h2.8V144.7z"/>
    <path class="logo--shape" d="M146.1 146.3c5.4 0 8 3.4 8 7.4 0 4-2.6 7.4-8 7.4 -5.4 0-8-3.4-8-7.4C138.1 149.7 140.7 146.3 146.1 146.3zM146.1 148.5c-3.8 0-5.2 2.7-5.2 5.2 0 2.5 1.4 5.2 5.2 5.2 3.8 0 5.2-2.7 5.2-5.2C151.3 151.2 149.9 148.5 146.1 148.5z"/>
    <path class="logo--shape" d="M156.4 146.8h2.6v2.5h0.1c1.2-2.2 3-3 4.7-3 0.7 0 1 0 1.5 0.2v2.8c-0.7-0.2-1.2-0.3-1.9-0.3 -2.6 0-4.4 1.5-4.4 4.5v7h-2.6V146.8z"/>
    <path class="logo--shape" d="M186.1 146.8h2.9l-6.2 13.8h-2.9l-6.3-13.8h3l4.7 10.9L186.1 146.8z"/>
    <path class="logo--shape" d="M191.9 154.4c0.2 2.8 2.7 4.4 5.1 4.4 1.5 0 3.6-0.5 4.4-2.4h2.8c-1.3 3.3-4.4 4.7-7.1 4.7 -5.4 0-8-3.4-8-7.4 0-4 2.6-7.4 8-7.4 3.6 0 7.5 2.1 7.5 7.8v0.3H191.9zM201.8 152.4c-0.4-2.5-2.3-3.9-4.8-3.9 -2.4 0-4.6 1.4-5 3.9H201.8z"/>
    <path class="logo--shape" d="M206.9 141.6h2.6v19h-2.6V141.6z"/>
    <path class="logo--shape" d="M213.6 144.7c0-2.6 1.6-3.4 4.2-3.4 0.8 0 1.5 0.1 2.3 0.2v2.1c-0.5 0-1-0.1-1.5-0.1 -1.7 0-2.4 0.2-2.4 1.3v1.9h3.9v2.1h-3.9v11.7h-2.6v-11.7h-2.8v-2.1h2.8V144.7z"/>
    <path class="logo--shape" d="M234.4 154.4c0.3 2.8 1.7 4.4 4.8 4.4 1.5 0 3.5-0.5 4.4-2.4h2.8c-1.3 3.3-4.4 4.7-7.1 4.7 -2.4 0-4.8-0.4-6.5-3 -0.7 1.1-2.6 3-6.7 3 -4.6 0-5.6-2.4-5.6-4.2 0-2.6 1.5-3.9 5.8-4.3l3.2-0.3c1.5-0.2 2.4-0.4 2.4-1.7 0-1.9-1.8-2.3-4-2.3 -2.3 0-4.2 0.6-4.3 2.7h-2.5c0.3-3.4 2.7-4.8 6.8-4.8 2.4 0 4.5 0.6 5.9 2.3 1.3-1.6 3.4-2.3 5.4-2.3 4.7 0 7.4 3.3 7.4 7.8v0.3H234.4zM231.9 153.9c-0.9 0.2-1.6 0.4-2.6 0.4l-2.6 0.2c-2.3 0.2-3.5 0.8-3.5 2.3 0 1.3 1.3 2.2 3.2 2.2 3 0 5.5-1.6 5.5-3.9V153.9zM244 152.4c-0.4-2.5-2.3-3.9-4.8-3.9 -2.4 0-4.4 1.4-4.8 3.9H244z"/>
    <path class="logo--shape" d="M249.2 146.8h2.6v2.5h0.1c1.2-2.2 3-3 4.7-3 0.7 0 1 0 1.5 0.2v2.8c-0.7-0.2-1.2-0.3-1.9-0.3 -2.6 0-4.4 1.5-4.4 4.5v7h-2.6V146.8z"/>
    <path class="logo--shape" d="M271.5 158.8L271.5 158.8c-1.1 1.4-3.3 2.2-5.3 2.2 -4.2 0-7.5-2.7-7.5-7.3s3.3-7.3 7.5-7.3c2.1 0 4.2 0.7 5.2 2.2h0.1v-7.1h2.6v19h-2.6V158.8zM266.6 158.8c3.6 0 5.1-2.5 5.1-5.1 0-3.2-2-5.1-5.1-5.1 -3.1 0-5.1 1.9-5.1 5.1C261.5 156.3 263 158.8 266.6 158.8z"/>
    <path class="logo--shape" d="M279 156.2c0 1.2 1 2.8 4.3 2.8 3.4 0 4.2-1.2 4.2-2.2 0-1-0.5-1.6-2.6-1.8l-4.3-0.6c-2-0.3-3.7-1.5-3.7-3.7 0-2.8 2.4-4.4 6.3-4.4 4.5 0 6.5 1.9 6.7 4.6h-2.6c-0.1-1.4-1.4-2.6-4.1-2.6 -1.7 0-3.6 0.5-3.6 2.1 0 0.9 0.4 1.4 2.3 1.7l3.7 0.5c3.5 0.5 4.8 1.7 4.8 3.7 0 3.2-2.7 4.7-6.9 4.7 -3.2 0-6.8-0.8-7.1-4.8H279z"/>
    <path class="logo--shape" d="M292.5 151.9h9.2v2.7h-9.2V151.9z"/>
    <path class="logo--shape" d="M320.7 146.3c5.4 0 8 3.4 8 7.4 0 4-2.6 7.4-8 7.4 -5.4 0-8-3.4-8-7.4C312.7 149.7 315.4 146.3 320.7 146.3zM320.7 148.5c-3.8 0-5.2 2.7-5.2 5.2 0 2.5 1.4 5.2 5.2 5.2s5.2-2.7 5.2-5.2C326 151.2 324.6 148.5 320.7 148.5z"/>
    <path class="logo--shape" d="M343.4 146.8h2.6v12.6c0 4.9-2.4 6.9-8 6.9 -3 0-6.4-0.5-6.9-4.3h2.6c0.5 1.8 2.1 2.2 4.6 2.2 3.7 0 5.1-1.9 5.1-4.2v-2h-0.1c-1.5 2.1-3.6 2.6-5.3 2.6 -3.7 0-7.6-2-7.6-7.1 0-5.1 3.9-7.1 7.5-7.1 2.3 0 4.3 0.8 5.4 2.3h0.1V146.8zM338.3 148.7c-3.2 0-5.1 2.1-5.1 4.9 0 2.8 1.9 4.9 5.1 4.9 3.2 0 5.1-2 5.1-4.9C343.4 150.8 341.5 148.7 338.3 148.7z"/>
    <path class="logo--shape" d="M358.2 144.7c0-2.6 1.6-3.4 4.2-3.4 0.8 0 1.5 0.1 2.3 0.2v2.1c-0.5 0-1-0.1-1.5-0.1 -1.7 0-2.4 0.2-2.4 1.3v1.9h3.9v2.1h-3.9v11.7h-2.6v-11.7h-2.8v-2.1h2.8V144.7z"/>
    <path class="logo--shape" d="M366 146.8h2.6v2.5h0.1c1.2-2.2 3-3 4.7-3 0.7 0 1 0 1.5 0.2v2.8c-0.7-0.2-1.2-0.3-1.9-0.3 -2.6 0-4.4 1.5-4.4 4.5v7H366V146.8z"/>
    <path class="logo--shape" d="M376.5 141.6h2.6v2.9h-2.6V141.6zM376.5 146.8h2.6v13.8h-2.6V146.8z"/>
    <path class="logo--shape" d="M382.1 141.6h2.6v7.2h0.1c1.2-1.9 3.4-2.6 5.4-2.6 3.3 0 5.8 1.4 5.8 4.9v9.4h-2.6v-8.9c0-2-1.3-3.2-4.1-3.2 -2.4 0-4.5 1.4-4.5 4.1v7.9h-2.6V141.6z"/>
    <path class="logo--shape" d="M401 154.4c0.2 2.8 2.7 4.4 5.1 4.4 1.5 0 3.6-0.5 4.4-2.4h2.8c-1.3 3.3-4.4 4.7-7.1 4.7 -5.4 0-8-3.4-8-7.4 0-4 2.6-7.4 8-7.4 3.6 0 7.5 2.1 7.5 7.8v0.3H401zM410.9 152.4c-0.4-2.5-2.3-3.9-4.8-3.9 -2.4 0-4.6 1.4-5 3.9H410.9z"/>
    <path class="logo--shape" d="M428.2 158.8L428.2 158.8c-1.1 1.4-3.3 2.2-5.3 2.2 -4.2 0-7.5-2.7-7.5-7.3s3.3-7.3 7.5-7.3c2.1 0 4.2 0.7 5.2 2.2h0.1v-7.1h2.6v19h-2.6V158.8zM423.2 158.8c3.6 0 5.1-2.5 5.1-5.1 0-3.2-2-5.1-5.1-5.1 -3.1 0-5.1 1.9-5.1 5.1C418.2 156.3 419.7 158.8 423.2 158.8z"/>
    <path class="logo--shape" d="M435.6 156.2c0 1.2 1 2.8 4.3 2.8 3.4 0 4.2-1.2 4.2-2.2 0-1-0.5-1.6-2.6-1.8l-4.3-0.6c-2-0.3-3.7-1.5-3.7-3.7 0-2.8 2.4-4.4 6.3-4.4 4.5 0 6.5 1.9 6.7 4.6h-2.6c-0.1-1.4-1.4-2.6-4.1-2.6 -1.7 0-3.6 0.5-3.6 2.1 0 0.9 0.4 1.4 2.3 1.7l3.7 0.5c3.5 0.5 4.8 1.7 4.8 3.7 0 3.2-2.7 4.7-6.9 4.7 -3.2 0-6.8-0.8-7.1-4.8H435.6z"/>
    <path class="logo--shape" d="M450.4 142.5h2.6v4.2h3.9v2.1h-3.9v8.5c0 1.1 0.8 1.5 2.1 1.5 0.6 0 1.2-0.1 1.8-0.2v2.2c-0.9 0.2-1.9 0.2-2.9 0.2 -2.6 0-3.6-1.3-3.6-3.3v-8.9h-2.8v-2.1h2.8V142.5z"/>
    <path class="logo--shape" d="M460.5 154.4c0.2 2.8 2.7 4.4 5.1 4.4 1.5 0 3.6-0.5 4.4-2.4h2.8c-1.3 3.3-4.4 4.7-7.1 4.7 -5.4 0-8-3.4-8-7.4 0-4 2.6-7.4 8-7.4 3.6 0 7.5 2.1 7.5 7.8v0.3H460.5zM470.4 152.4c-0.4-2.5-2.3-3.9-4.8-3.9 -2.4 0-4.6 1.4-5 3.9H470.4z"/>
    <path class="logo--shape" d="M485.2 146.8h4l-6.5 5.2 7 8.6h-3.6l-5.5-6.9 -2.4 1.9v5h-2.6v-19h2.6v11.1L485.2 146.8z"/>
    <path class="logo--shape" d="M491 146.8h2.6v2.1h0.1c1.2-1.9 3.4-2.6 5.4-2.6 3.3 0 5.8 1.4 5.8 4.9v9.4h-2.6v-8.9c0-2-1.3-3.2-4.1-3.2 -2.4 0-4.5 1.4-4.5 4.1v7.9H491V146.8z"/>
    <path class="logo--shape" d="M515.2 146.3c5.4 0 8 3.4 8 7.4 0 4-2.6 7.4-8 7.4 -5.4 0-8-3.4-8-7.4C507.1 149.7 509.8 146.3 515.2 146.3zM515.2 148.5c-3.8 0-5.2 2.7-5.2 5.2 0 2.5 1.4 5.2 5.2 5.2s5.2-2.7 5.2-5.2C520.4 151.2 519 148.5 515.2 148.5z"/>
    <path class="logo--shape" d="M525.5 141.6h2.6v19h-2.6V141.6z"/>
    <path class="logo--shape" d="M538.5 146.3c5.4 0 8 3.4 8 7.4 0 4-2.6 7.4-8 7.4 -5.4 0-8-3.4-8-7.4C530.5 149.7 533.1 146.3 538.5 146.3zM538.5 148.5c-3.8 0-5.2 2.7-5.2 5.2 0 2.5 1.4 5.2 5.2 5.2 3.8 0 5.2-2.7 5.2-5.2C543.7 151.2 542.3 148.5 538.5 148.5z"/>
    <path class="logo--shape" d="M561.1 146.8h2.6v12.6c0 4.9-2.4 6.9-8 6.9 -3 0-6.4-0.5-6.9-4.3h2.6c0.5 1.8 2.1 2.2 4.6 2.2 3.7 0 5.1-1.9 5.1-4.2v-2H561c-1.5 2.1-3.6 2.6-5.3 2.6 -3.7 0-7.6-2-7.6-7.1 0-5.1 3.9-7.1 7.5-7.1 2.3 0 4.3 0.8 5.4 2.3h0.1V146.8zM556 148.7c-3.2 0-5.1 2.1-5.1 4.9 0 2.8 1.9 4.9 5.1 4.9 3.2 0 5.1-2 5.1-4.9C561.1 150.8 559.2 148.7 556 148.7z"/>
    <path class="logo--shape" d="M566.6 141.6h2.6v2.9h-2.6V141.6zM566.6 146.8h2.6v13.8h-2.6V146.8z"/>
  </g>
  <path class="logo--shape" d="M518.7 80.9l2 2.5 0 0L518.7 80.9 518.7 80.9zM516.6 83.4l2 2.5 0 0L516.6 83.4 516.6 83.4zM561.9 28.3l-31.1 37.8 2 2.5L566 28.3H561.9zM495.8 108.8h4.1l12.8-15.6 -2-2.5L495.8 108.8zM514.6 80.9l2 2.5 0 0L514.6 80.9 514.6 80.9zM516.6 78.5l2 2.5 0 0L516.6 78.5 516.6 78.5zM487.6 108.8h4.1l16.8-20.5 -2-2.5L487.6 108.8zM553.8 28.3l-27 32.9 2 2.5 29-35.3H553.8zM514.6 76l2 2.5 0 0L514.6 76 514.6 76zM512.6 78.5l2 2.5 0 0L512.6 78.5 512.6 78.5zM514.6 76l-2-2.5 0 0L514.6 76 514.6 76zM549.7 28.3l-25 30.4 2 2.5 27-32.9H549.7zM510.6 76L510.6 76l2 2.5 0 0L510.6 76zM483.6 108.8h4.1l18.9-23 -2-2.5L483.6 108.8zM541.6 28.3l-20.9 25.5 2 2.5 22.9-27.9H541.6zM475.4 108.8h4.1l22.9-27.9 -2-2.5L475.4 108.8zM508.5 73.5l-2-2.5 0 0L508.5 73.5 508.5 73.5zM516.7 63.6l-2-2.5 -2 2.5 2 2.5L516.7 63.6zM510.6 71l-2-2.5 0 0L510.6 71 510.6 71zM512.6 58.7l-2-2.5 -2 2.5 2 2.5L512.6 58.7zM506.5 66.1l-2-2.5 0 0L506.5 66.1 506.5 66.1zM467.3 108.8h4.1l27-32.9 -2-2.5L467.3 108.8zM533.5 28.3l-16.8 20.5 2 2.5 18.9-23H533.5zM504.5 68.6l-2-2.5 0 0L504.5 68.6 504.5 68.6zM525.4 28.3l-12.8 15.6 2 2.5 14.8-18H525.4zM459.2 108.8h4.1L494.3 71l-2-2.5L459.2 108.8zM502.4 61.1l-2-2.5 0 0L502.4 61.1 502.4 61.1zM500.4 63.6L500.4 63.6l-2-2.5 0 0L500.4 63.6zM530.9 71l31.1 37.8h4.1l-33.1-40.3L530.9 71zM524.8 63.6l2-2.5 0 0L524.8 63.6 524.8 63.6zM522.7 61.1l2-2.5 -2-2.5 -2 2.5L522.7 61.1zM518.7 56.2l2-2.5 -2-2.5 -2 2.5L518.7 56.2zM528.8 68.6L528.8 68.6l2-2.5 0 0L528.8 68.6zM514.6 51.2l2-2.5 -2-2.5 -2 2.5L514.6 51.2zM526.8 66.1l2-2.5 0 0L526.8 66.1 526.8 66.1zM495.7 28.3l14.8 18 2-2.5 -12.8-15.6H495.7zM528.8 68.6l2 2.5 2-2.5 -2-2.5L528.8 68.6zM526.8 66.1l2 2.5 2-2.5 -2-2.5L526.8 66.1zM528.8 63.6l-2-2.5 -2 2.5 2 2.5L528.8 63.6zM520.7 58.7l2-2.5 -2-2.5 -2 2.5L520.7 58.7zM516.7 53.7l2-2.5 -2-2.5 -2 2.5L516.7 53.7zM514.6 46.3l-2-2.5 -2 2.5 2 2.5L514.6 46.3zM491.7 28.3l11.7 14.2 5.2 6.3 2-2.5 -14.8-18H491.7zM528.8 73.5l29 35.3h4.1L530.9 71 528.8 73.5zM526.8 71l2-2.5 0 0L526.8 71 526.8 71zM524.8 68.6L524.8 68.6l2-2.5 0 0L524.8 68.6zM520.7 63.6l2-2.5 -2-2.5 -2 2.5L520.7 63.6zM522.7 66.1l2-2.5 0 0L522.7 66.1 522.7 66.1zM524.8 68.6l2 2.5 2-2.5 -2-2.5L524.8 68.6zM522.7 66.1l2-2.5 -2-2.5 -2 2.5L522.7 66.1zM518.7 61.1l2-2.5 -2-2.5 -2 2.5L518.7 61.1zM516.7 53.7l-2-2.5 -2 2.5 2 2.5L516.7 53.7zM512.6 48.8l-2-2.5 -2 2.5 2 2.5L512.6 48.8zM528.8 68.6L528.8 68.6 528.8 68.6 528.8 68.6zM526.8 66.1L526.8 66.1 526.8 66.1 526.8 66.1 526.8 66.1zM524.8 63.6L524.8 63.6 524.8 63.6 524.8 63.6 524.8 63.6zM520.7 68.6L520.7 68.6l2-2.5 0 0L520.7 68.6zM512.6 53.7l-2-2.5 -2 2.5 2 2.5L512.6 53.7zM487.6 28.3l18.9 23 2-2.5 -5.2-6.3 -11.7-14.2H487.6zM526.8 76l27 32.9h4.1l-29-35.3L526.8 76zM516.7 58.7l-2-2.5 -2 2.5 2 2.5L516.7 58.7zM522.7 71l2-2.5 0 0L522.7 71 522.7 71zM518.7 66.1l2-2.5 -2-2.5 -2 2.5L518.7 66.1zM524.8 73.5L524.8 73.5l2-2.5 0 0L524.8 73.5zM524.8 73.5l2 2.5 2-2.5 -2-2.5L524.8 73.5zM522.7 71l2 2.5 2-2.5 -2-2.5L522.7 71zM520.7 68.6l2 2.5 2-2.5 -2-2.5L520.7 68.6zM520.7 68.6l2-2.5 -2-2.5 -2 2.5L520.7 68.6zM518.7 61.1l-2-2.5 -2 2.5 2 2.5L518.7 61.1zM514.6 56.2l-2-2.5 -2 2.5 2 2.5L514.6 56.2zM510.6 51.2l-2-2.5 -2 2.5 2 2.5L510.6 51.2zM522.7 66.1L522.7 66.1 522.7 66.1zM524.8 68.6L524.8 68.6 524.8 68.6zM526.8 71L526.8 71 526.8 71zM479.5 28.3l22.9 27.9 2-2.5 -20.9-25.5H479.5zM520.7 78.5L520.7 78.5l2-2.5 0 0L520.7 78.5zM516.7 73.5l2-2.5 0 0L516.7 73.5 516.7 73.5zM516.7 68.6l-2-2.5 -2 2.5 2 2.5L516.7 68.6zM518.7 76L518.7 76l2-2.5 0 0L518.7 76zM508.5 58.7l-2-2.5 -2 2.5 2 2.5L508.5 58.7zM512.6 63.6l-2-2.5 -2 2.5 2 2.5L512.6 63.6zM522.7 80.9l22.9 27.9h4.1l-25-30.4L522.7 80.9zM520.7 78.5l2 2.5 2-2.5 -2-2.5L520.7 78.5zM518.7 76l2 2.5 2-2.5 -2-2.5L518.7 76zM516.7 73.5l2 2.5 2-2.5 -2-2.5L516.7 73.5zM514.6 71l2 2.5 2-2.5 -2-2.5L514.6 71zM514.6 66.1l-2-2.5 -2 2.5 2 2.5L514.6 66.1zM510.6 61.1l-2-2.5 -2 2.5 2 2.5L510.6 61.1zM506.5 56.2l-2-2.5 -2 2.5 2 2.5L506.5 56.2zM510.6 66.1l-2-2.5 -2 2.5 2 2.5L510.6 66.1zM516.7 78.5L516.7 78.5l2-2.5 0 0L516.7 78.5zM518.7 80.9L518.7 80.9l2-2.5 0 0L518.7 80.9zM475.4 28.3l25 30.4 2-2.5 -22.9-27.9H475.4zM520.7 83.4l20.9 25.4h4.1l-22.9-27.9L520.7 83.4zM506.5 61.1l-2-2.5 -2 2.5 2 2.5L506.5 61.1zM514.6 76L514.6 76l2-2.5 0 0L514.6 76zM514.6 71l-2-2.5 -2 2.5 2 2.5L514.6 71zM518.7 80.9l2 2.5 2-2.5 -2-2.5L518.7 80.9zM514.6 76l2 2.5 2-2.5 -2-2.5L514.6 76zM508.5 63.6l-2-2.5 -2 2.5 2 2.5L508.5 63.6zM516.7 73.5L516.7 73.5 516.7 73.5 516.7 73.5zM520.7 78.5L520.7 78.5 520.7 78.5 520.7 78.5 520.7 78.5zM518.7 76L518.7 76 518.7 76 518.7 76zM516.6 83.4L516.6 83.4l2-2.5 0 0L516.6 83.4zM514.6 80.9L514.6 80.9l2-2.5 0 0L514.6 80.9zM504.5 63.6l-2-2.5 -2 2.5 2 2.5L504.5 63.6zM508.5 68.6l-2-2.5 -2 2.5 2 2.5L508.5 68.6zM512.6 78.5L512.6 78.5l2-2.5 0 0L512.6 78.5zM512.6 73.5l-2-2.5 -2 2.5 2 2.5L512.6 73.5zM516.6 83.4l2 2.5 2-2.5 -2-2.5L516.6 83.4zM514.6 80.9l2 2.5 2-2.5 -2-2.5L514.6 80.9zM512.6 78.5l2 2.5 2-2.5 -2-2.5L512.6 78.5zM514.6 76l-2-2.5 -2 2.5 2 2.5L514.6 76zM508.5 68.6l-2 2.5 2 2.5 2-2.5L508.5 68.6zM502.4 61.1l-2-2.5 -2 2.5 2 2.5L502.4 61.1zM512.6 83.4L512.6 83.4l2-2.5 0 0L512.6 83.4zM467.3 28.3l29 35.4 2-2.5 -27-32.9H467.3zM514.6 85.9L514.6 85.9l2-2.5 0 0L514.6 85.9zM512.6 78.5l-2 2.5 0 0L512.6 78.5 512.6 78.5zM500.4 68.6l2-2.5 -2-2.5 -2 2.5L500.4 68.6zM516.6 88.4l16.8 20.5h4.1l-18.9-23L516.6 88.4zM514.6 85.9l2 2.5 2-2.5 -2-2.5L514.6 85.9zM510.6 80.9l2 2.5 2-2.5 -2-2.5L510.6 80.9zM510.5 76l-2 2.5 2 2.5 2-2.5L510.5 76zM508.5 73.5l-2-2.5 -2 2.5 2 2.5L508.5 73.5zM502.4 66.1l-2 2.5 2 2.5 2-2.5L502.4 66.1zM500.4 63.6l-2-2.5 -2 2.5 2 2.5L500.4 63.6zM506.5 76l-2 2.5 2 2.5 2-2.5L506.5 76zM502.4 71l-2 2.5 2 2.5 2-2.5L502.4 71zM512.6 88.3L512.6 88.3l2-2.5 0 0L512.6 88.3zM512.6 83.4l-2 2.5 0 0L512.6 83.4 512.6 83.4zM510.5 80.9l-2 2.5 0 0L510.5 80.9 510.5 80.9zM514.6 90.8l2-2.5 -2-2.5 -2 2.5L514.6 90.8zM510.6 85.9l2 2.5 2-2.5 -2-2.5L510.6 85.9zM510.5 80.9l-2 2.5 2 2.5 2-2.5L510.5 80.9zM508.5 78.5l-2 2.5 2 2.5 2-2.5L508.5 78.5zM504.5 73.5l-2 2.5 2 2.5 2-2.5L504.5 73.5zM502.4 71l-2-2.5 -2 2.5 2 2.5L502.4 71zM496.3 63.6l-2 2.5 2 2.5 2-2.5L496.3 63.6zM512.6 83.4L512.6 83.4 512.6 83.4 512.6 83.4 512.6 83.4zM510.5 80.9L510.5 80.9 510.5 80.9 510.5 80.9 510.5 80.9zM514.6 85.9L514.6 85.9 514.6 85.9 514.6 85.9 514.6 85.9zM504.5 78.5l-2 2.5 2 2.5 2-2.5L504.5 78.5zM508.5 83.4l-2 2.5 0 0L508.5 83.4 508.5 83.4zM459.2 28.3L459.2 28.3 459.2 28.3 459.2 28.3zM512.6 93.3l12.8 15.6h4.1l-14.8-18L512.6 93.3zM512.6 88.4l-2 2.5 0 0L512.6 88.4 512.6 88.4zM500.4 73.5l-2 2.5 2 2.5 2-2.5L500.4 73.5zM496.3 68.6l-2 2.5 2 2.5 2-2.5L496.3 68.6zM510.6 85.9l-2 2.5 0 0L510.6 85.9 510.6 85.9zM459.2 28.3L459.2 28.3l33.1 40.3 2-2.5 -31.1-37.8H459.2zM510.6 90.8l2 2.5 2-2.5 -2-2.5L510.6 90.8zM510.6 85.9l-2 2.5 2 2.5 2-2.5L510.6 85.9zM508.5 83.4l-2 2.5 2 2.5 2-2.5L508.5 83.4zM498.4 71l-2 2.5 2 2.5 2-2.5L498.4 71zM496.3 68.6l-2-2.5 -2 2.5 2 2.5L496.3 68.6zM512.6 88.4L512.6 88.4 512.6 88.4 512.6 88.4 512.6 88.4zM508.5 83.4L508.5 83.4 508.5 83.4 508.5 83.4 508.5 83.4zM510.6 85.9L510.6 85.9 510.6 85.9 510.6 85.9 510.6 85.9z"/>
</svg>
