<svg xmlns="http://www.w3.org/2000/svg" xmlns:xlink="http://www.w3.org/1999/xlink" version="1.1" x="0px" y="0px" viewBox="0 0 106.8 80.6" xml:space="preserve">
  <path style="opacity: .15;" d="M59.5 52.7l2 2.5 0 0L59.5 52.7 59.5 52.7zM57.5 55.1l2 2.5 0 0L57.5 55.1 57.5 55.1zM102.8 0L71.7 37.8l2 2.5L106.8 0H102.8zM36.6 80.6h4.1L53.4 65l-2-2.5L36.6 80.6zM55.4 52.7l2 2.5 0 0L55.4 52.7 55.4 52.7zM57.5 50.2l2 2.5 0 0L57.5 50.2 57.5 50.2zM28.4 80.6h4.1l16.8-20.5 -2-2.5L28.4 80.6zM94.6 0l-27 32.9 2 2.5L98.7 0H94.6zM55.4 47.7l2 2.5 0 0L55.4 47.7 55.4 47.7zM53.4 50.2l2 2.5 0 0L53.4 50.2 53.4 50.2zM55.4 47.7l-2-2.5 0 0L55.4 47.7 55.4 47.7zM90.6 0l-25 30.4 2 2.5L94.6 0H90.6zM51.4 47.7L51.4 47.7l2 2.5 0 0L51.4 47.7zM24.4 80.6h4.1l18.9-23 -2-2.5L24.4 80.6zM82.4 0L61.5 25.5l2 2.5L86.5 0H82.4zM16.3 80.6h4.1l22.9-27.9 -2-2.5L16.3 80.6zM49.3 45.2l-2-2.5 0 0L49.3 45.2 49.3 45.2zM57.5 35.3l-2-2.5 -2 2.5 2 2.5L57.5 35.3zM51.4 42.8l-2-2.5 0 0L51.4 42.8 51.4 42.8zM53.4 30.4l-2-2.5 -2 2.5 2 2.5L53.4 30.4zM47.3 37.8l-2-2.5 0 0L47.3 37.8 47.3 37.8zM8.1 80.6h4.1l27-32.9 -2-2.5L8.1 80.6zM74.3 0L57.5 20.5l2 2.5L78.4 0H74.3zM45.3 40.3l-2-2.5 0 0L45.3 40.3 45.3 40.3zM66.2 0L53.4 15.6l2 2.5L70.2 0H66.2zM0 80.6h4.1l31.1-37.8 -2-2.5L0 80.6zM43.3 32.9l-2-2.5 0 0L43.3 32.9 43.3 32.9zM41.2 35.4L41.2 35.4l-2-2.5 0 0L41.2 35.4zM71.7 42.8l31.1 37.8h4.1L73.7 40.3 71.7 42.8zM65.6 35.3l2-2.5 0 0L65.6 35.3 65.6 35.3zM63.6 32.9l2-2.5 -2-2.5 -2 2.5L63.6 32.9zM59.5 27.9l2-2.5 -2-2.5 -2 2.5L59.5 27.9zM69.7 40.3L69.7 40.3l2-2.5 0 0L69.7 40.3zM55.4 23l2-2.5 -2-2.5 -2 2.5L55.4 23zM67.6 37.8l2-2.5 0 0L67.6 37.8 67.6 37.8zM36.6 0l14.8 18 2-2.5L40.6 0H36.6zM69.7 40.3l2 2.5 2-2.5 -2-2.5L69.7 40.3zM67.6 37.8l2 2.5 2-2.5 -2-2.5L67.6 37.8zM69.7 35.3l-2-2.5 -2 2.5 2 2.5L69.7 35.3zM61.5 30.4l2-2.5 -2-2.5 -2 2.5L61.5 30.4zM57.5 25.4l2-2.5 -2-2.5 -2 2.5L57.5 25.4zM55.4 18l-2-2.5 -2 2.5 2 2.5L55.4 18zM32.5 0l11.7 14.2 5.2 6.3 2-2.5L36.6 0H32.5zM69.7 45.2l29 35.3h4.1L71.7 42.8 69.7 45.2zM67.6 42.8l2-2.5 0 0L67.6 42.8 67.6 42.8zM65.6 40.3L65.6 40.3l2-2.5 0 0L65.6 40.3zM61.5 35.3l2-2.5 -2-2.5 -2 2.5L61.5 35.3zM63.6 37.8l2-2.5 0 0L63.6 37.8 63.6 37.8zM65.6 40.3l2 2.5 2-2.5 -2-2.5L65.6 40.3zM63.6 37.8l2-2.5 -2-2.5 -2 2.5L63.6 37.8zM59.5 32.9l2-2.5 -2-2.5 -2 2.5L59.5 32.9zM57.5 25.5l-2-2.5 -2 2.5 2 2.5L57.5 25.5zM53.4 20.5l-2-2.5 -2 2.5 2 2.5L53.4 20.5zM69.7 40.3L69.7 40.3 69.7 40.3 69.7 40.3zM67.6 37.8L67.6 37.8 67.6 37.8 67.6 37.8 67.6 37.8zM65.6 35.3L65.6 35.3 65.6 35.3 65.6 35.3 65.6 35.3zM61.5 40.3L61.5 40.3l2-2.5 0 0L61.5 40.3zM53.4 25.5l-2-2.5 -2 2.5 2 2.5L53.4 25.5zM28.4 0l18.9 23 2-2.5 -5.2-6.3L32.5 0H28.4zM67.6 47.7l27 32.9h4.1l-29-35.3L67.6 47.7zM57.5 30.4l-2-2.5 -2 2.5 2 2.5L57.5 30.4zM63.6 42.8l2-2.5 0 0L63.6 42.8 63.6 42.8zM59.5 37.8l2-2.5 -2-2.5 -2 2.5L59.5 37.8zM65.6 45.2L65.6 45.2l2-2.5 0 0L65.6 45.2zM65.6 45.2l2 2.5 2-2.5 -2-2.5L65.6 45.2zM63.6 42.8l2 2.5 2-2.5 -2-2.5L63.6 42.8zM61.5 40.3l2 2.5 2-2.5 -2-2.5L61.5 40.3zM61.5 40.3l2-2.5 -2-2.5 -2 2.5L61.5 40.3zM59.5 32.9l-2-2.5 -2 2.5 2 2.5L59.5 32.9zM55.4 27.9l-2-2.5 -2 2.5 2 2.5L55.4 27.9zM51.4 23l-2-2.5 -2 2.5 2 2.5L51.4 23zM63.6 37.8L63.6 37.8 63.6 37.8zM65.6 40.3L65.6 40.3 65.6 40.3zM67.6 42.8L67.6 42.8 67.6 42.8zM20.3 0l22.9 27.9 2-2.5L24.4 0H20.3zM61.5 50.2L61.5 50.2l2-2.5 0 0L61.5 50.2zM57.5 45.2l2-2.5 0 0L57.5 45.2 57.5 45.2zM57.5 40.3l-2-2.5 -2 2.5 2 2.5L57.5 40.3zM59.5 47.7L59.5 47.7l2-2.5 0 0L59.5 47.7zM49.3 30.4l-2-2.5 -2 2.5 2 2.5L49.3 30.4zM53.4 35.3l-2-2.5 -2 2.5 2 2.5L53.4 35.3zM63.6 52.7l22.9 27.9h4.1l-25-30.4L63.6 52.7zM61.5 50.2l2 2.5 2-2.5 -2-2.5L61.5 50.2zM59.5 47.7l2 2.5 2-2.5 -2-2.5L59.5 47.7zM57.5 45.2l2 2.5 2-2.5 -2-2.5L57.5 45.2zM55.4 42.8l2 2.5 2-2.5 -2-2.5L55.4 42.8zM55.4 37.8l-2-2.5 -2 2.5 2 2.5L55.4 37.8zM51.4 32.9l-2-2.5 -2 2.5 2 2.5L51.4 32.9zM47.3 27.9l-2-2.5 -2 2.5 2 2.5L47.3 27.9zM51.4 37.8l-2-2.5 -2 2.5 2 2.5L51.4 37.8zM57.5 50.2L57.5 50.2l2-2.5 0 0L57.5 50.2zM59.5 52.7L59.5 52.7l2-2.5 0 0L59.5 52.7zM16.3 0l25 30.4 2-2.5L20.3 0H16.3zM61.5 55.1l20.9 25.4h4.1L63.6 52.7 61.5 55.1zM47.3 32.9l-2-2.5 -2 2.5 2 2.5L47.3 32.9zM55.4 47.7L55.4 47.7l2-2.5 0 0L55.4 47.7zM55.4 42.8l-2-2.5 -2 2.5 2 2.5L55.4 42.8zM59.5 52.7l2 2.5 2-2.5 -2-2.5L59.5 52.7zM55.4 47.7l2 2.5 2-2.5 -2-2.5L55.4 47.7zM49.3 35.3l-2-2.5 -2 2.5 2 2.5L49.3 35.3zM57.5 45.2L57.5 45.2 57.5 45.2 57.5 45.2zM61.5 50.2L61.5 50.2 61.5 50.2 61.5 50.2 61.5 50.2zM59.5 47.7L59.5 47.7 59.5 47.7 59.5 47.7zM57.5 55.1L57.5 55.1l2-2.5 0 0L57.5 55.1zM55.4 52.7L55.4 52.7l2-2.5 0 0L55.4 52.7zM45.3 35.4l-2-2.5 -2 2.5 2 2.5L45.3 35.4zM49.3 40.3l-2-2.5 -2 2.5 2 2.5L49.3 40.3zM53.4 50.2L53.4 50.2l2-2.5 0 0L53.4 50.2zM53.4 45.2l-2-2.5 -2 2.5 2 2.5L53.4 45.2zM57.5 55.1l2 2.5 2-2.5 -2-2.5L57.5 55.1zM55.4 52.7l2 2.5 2-2.5 -2-2.5L55.4 52.7zM53.4 50.2l2 2.5 2-2.5 -2-2.5L53.4 50.2zM55.4 47.7l-2-2.5 -2 2.5 2 2.5L55.4 47.7zM49.3 40.3l-2 2.5 2 2.5 2-2.5L49.3 40.3zM43.2 32.9l-2-2.5 -2 2.5 2 2.5L43.2 32.9zM53.4 55.1L53.4 55.1l2-2.5 0 0L53.4 55.1zM8.1 0l29 35.4 2-2.5L12.2 0H8.1zM55.4 57.6L55.4 57.6l2-2.5 0 0L55.4 57.6zM53.4 50.2l-2 2.5 0 0L53.4 50.2 53.4 50.2zM41.2 40.3l2-2.5 -2-2.5 -2 2.5L41.2 40.3zM57.5 60.1l16.8 20.5h4.1l-18.9-23L57.5 60.1zM55.4 57.6l2 2.5 2-2.5 -2-2.5L55.4 57.6zM51.4 52.7l2 2.5 2-2.5 -2-2.5L51.4 52.7zM51.4 47.7l-2 2.5 2 2.5 2-2.5L51.4 47.7zM49.3 45.2l-2-2.5 -2 2.5 2 2.5L49.3 45.2zM43.2 37.8l-2 2.5 2 2.5 2-2.5L43.2 37.8zM41.2 35.4l-2-2.5 -2 2.5 2 2.5L41.2 35.4zM47.3 47.7l-2 2.5 2 2.5 2-2.5L47.3 47.7zM43.2 42.8l-2 2.5 2 2.5 2-2.5L43.2 42.8zM53.4 60.1L53.4 60.1l2-2.5 0 0L53.4 60.1zM53.4 55.1l-2 2.5 0 0L53.4 55.1 53.4 55.1zM51.4 52.7l-2 2.5 0 0L51.4 52.7 51.4 52.7zM55.4 62.5l2-2.5 -2-2.5 -2 2.5L55.4 62.5zM51.4 57.6l2 2.5 2-2.5 -2-2.5L51.4 57.6zM51.4 52.7l-2 2.5 2 2.5 2-2.5L51.4 52.7zM49.3 50.2l-2 2.5 2 2.5 2-2.5L49.3 50.2zM45.3 45.2l-2 2.5 2 2.5 2-2.5L45.3 45.2zM43.2 42.8l-2-2.5 -2 2.5 2 2.5L43.2 42.8zM37.1 35.4l-2 2.5 2 2.5 2-2.5L37.1 35.4zM53.4 55.1L53.4 55.1 53.4 55.1 53.4 55.1 53.4 55.1zM51.4 52.7L51.4 52.7 51.4 52.7 51.4 52.7 51.4 52.7zM55.4 57.6L55.4 57.6 55.4 57.6 55.4 57.6 55.4 57.6zM45.3 50.2l-2 2.5 2 2.5 2-2.5L45.3 50.2zM49.3 55.1l-2 2.5 0 0L49.3 55.1 49.3 55.1zM0 0L0 0 0 0 0 0zM53.4 65l12.8 15.6h4.1l-14.8-18L53.4 65zM53.4 60.1l-2 2.5 0 0L53.4 60.1 53.4 60.1zM41.2 45.2l-2 2.5 2 2.5 2-2.5L41.2 45.2zM37.2 40.3l-2 2.5 2 2.5 2-2.5L37.2 40.3zM51.4 57.6l-2 2.5 0 0L51.4 57.6 51.4 57.6zM0 0L0 0l33.1 40.3 2-2.5L4.1 0H0zM51.4 62.6l2 2.5 2-2.5 -2-2.5L51.4 62.6zM51.4 57.6l-2 2.5 2 2.5 2-2.5L51.4 57.6zM49.3 55.1l-2 2.5 2 2.5 2-2.5L49.3 55.1zM39.2 42.8l-2 2.5 2 2.5 2-2.5L39.2 42.8zM37.2 40.3l-2-2.5 -2 2.5 2 2.5L37.2 40.3zM53.4 60.1L53.4 60.1 53.4 60.1 53.4 60.1 53.4 60.1zM49.3 55.1L49.3 55.1 49.3 55.1 49.3 55.1 49.3 55.1zM51.4 57.6L51.4 57.6 51.4 57.6 51.4 57.6 51.4 57.6z"/>
</svg>
