<svg viewBox="0 0 240 63" xmlns="http://www.w3.org/2000/svg">
  <g fill="#ffffff" fill-rule="evenodd" class="logo--shape">
    <path d="M10.605.34c2.882 0 5.257.92 7.124 2.76 1.867 1.84 2.8 4.202 2.8 7.084v3.902c0 2.893-.933 5.254-2.8 7.084-1.868 1.83-4.243 2.744-7.125 2.744H0V21.08l2.51-.485V3.675L0 3.19V.34h10.605zM7.237 3.983v16.304h3.125c1.695 0 3.023-.572 3.983-1.716.96-1.143 1.44-2.638 1.44-4.484v-3.934c0-1.824-.48-3.31-1.44-4.453-.96-1.145-2.288-1.717-3.983-1.717H7.237zM33.435.34c2.676 0 4.776.613 6.298 1.838 1.522 1.225 2.283 2.917 2.283 5.076 0 1.187-.32 2.218-.955 3.092-.636.874-1.57 1.58-2.8 2.12 1.392.41 2.393 1.094 3.003 2.05.61.955.915 2.14.915 3.553v1.197c0 .518.102.92.307 1.207.205.286.545.456 1.02.51l.583.08v2.85h-2.445c-1.543 0-2.628-.415-3.254-1.247-.627-.83-.94-1.905-.94-3.222v-1.343c0-1.145-.305-2.043-.915-2.696-.61-.653-1.47-.996-2.582-1.028h-3.87v6.217l2.526.486v2.834h-9.764V21.08l2.51-.485V3.675l-2.51-.485V.34h10.59zm-3.352 10.395h3.27c1.317 0 2.305-.28 2.964-.842.658-.562.987-1.37.987-2.43 0-1.057-.326-1.9-.98-2.533-.652-.63-1.616-.947-2.89-.947h-3.35v6.752zM55.13.34v2.85l-2.525.485V15.98c0 1.555.418 2.718 1.255 3.49.836.772 1.983 1.157 3.44 1.157 1.48 0 2.64-.383 3.48-1.15.843-.766 1.264-1.93 1.264-3.496V3.676l-2.51-.485V.34H69.3v2.85l-2.526.485V15.98c0 2.645-.872 4.685-2.615 6.12-1.743 1.436-4.03 2.154-6.857 2.154-2.817 0-5.092-.718-6.824-2.153-1.733-1.435-2.6-3.475-2.6-6.12V3.676l-2.51-.485V.34h9.765zm26.78 0c2.7 0 4.828.694 6.388 2.08 1.56 1.388 2.34 3.204 2.34 5.45 0 2.255-.78 4.068-2.34 5.44-1.56 1.37-3.69 2.055-6.387 2.055H77.93v5.23l2.525.486v2.834H70.69V21.08l2.51-.485V3.675l-2.51-.485V.34h11.22zM77.93 11.722h3.983c1.317 0 2.313-.36 2.988-1.076.674-.718 1.012-1.633 1.012-2.745 0-1.132-.338-2.07-1.012-2.808-.675-.74-1.67-1.11-2.987-1.11H77.93v7.74zm13.972 9.36l1.684-.244L100.757.34h4.84l7.125 20.498 1.684.243v2.834h-8.03V21.08l1.635-.29-1.036-3.24h-7.642l-1.036 3.24 1.635.29v2.834H91.9V21.08zm8.55-7.012h5.407l-2.655-8.306h-.097l-2.656 8.306zm15.51 9.844V21.08l2.51-.485V3.675l-2.51-.485V.34h9.764v2.85l-2.526.485v16.612h6.654l.227-2.963h3.61v6.59h-17.73zM162.833 8.29h-3.513l-.486-3.14c-.464-.465-1.05-.832-1.756-1.102-.707-.27-1.54-.405-2.502-.405-2.05 0-3.63.745-4.736 2.234-1.106 1.49-1.66 3.433-1.66 5.83v.825c0 2.396.55 4.344 1.652 5.845 1.1 1.5 2.655 2.25 4.663 2.25.928 0 1.778-.135 2.55-.404.772-.27 1.368-.637 1.79-1.1l.485-3.142h3.513v4.664c-.95 1.1-2.16 1.978-3.634 2.63-1.475.654-3.124.98-4.948.98-3.162 0-5.753-1.095-7.772-3.287-2.018-2.19-3.027-5.003-3.027-8.435v-.793c0-3.423 1.004-6.235 3.01-8.437C148.474 1.1 151.07 0 154.254 0c1.823 0 3.47.332 4.937.996 1.468.664 2.683 1.54 3.643 2.63V8.29zm1.927 12.79l1.684-.242L173.617.34h4.84l7.125 20.498 1.684.243v2.834h-8.03V21.08l1.634-.29-1.036-3.24h-7.642l-1.036 3.24 1.635.29v2.834h-8.03V21.08zm8.55-7.01h5.407l-2.655-8.306h-.098l-2.655 8.306zm38.26-7.594l-.1-.016-6.313 17.454h-3.174L195.7 6.524l-.096.017.453 10.347v3.708l2.526.486v2.834h-9.763V21.08l2.51-.485V3.675l-2.51-.485V.34h8.678l6.007 17.373h.098L209.658.34h8.71v2.85l-2.525.485v16.92l2.526.486v2.834h-9.764V21.08l2.51-.485v-3.708l.453-10.41zM231.272.34c2.7 0 4.828.694 6.387 2.08C239.22 3.81 240 5.625 240 7.87c0 2.255-.78 4.068-2.34 5.44-1.56 1.37-3.688 2.055-6.387 2.055h-3.983v5.23l2.526.486v2.834h-9.763V21.08l2.51-.485V3.675l-2.51-.485V.34h11.22zm-3.983 11.382h3.983c1.317 0 2.313-.36 2.987-1.076.675-.718 1.012-1.633 1.012-2.745 0-1.132-.337-2.07-1.012-2.808-.674-.74-1.67-1.11-2.987-1.11h-3.983v7.74z"/>
    <path d="M0 59.17l1.85-.266 7.885-22.53h5.32l7.83 22.53 1.852.267v3.115H15.91V59.17l1.797-.32-1.14-3.56h-8.4L7.03 58.85l1.797.32v3.115H0V59.17zm9.396-7.705h5.944l-2.918-9.13h-.107l-2.92 9.13zm16.782 7.706l1.85-.266 7.885-22.53h5.32l7.83 22.53 1.852.267v3.115h-8.827V59.17l1.798-.32-1.14-3.56h-8.4l-1.138 3.56 1.797.32v3.115h-8.827V59.17zm9.397-7.705h5.944l-2.92-9.13h-.107l-2.918 9.13zm28.687-15.09c2.943 0 5.25.672 6.923 2.02 1.673 1.345 2.51 3.205 2.51 5.578 0 1.305-.35 2.438-1.05 3.4-.7.96-1.727 1.737-3.08 2.33 1.53.45 2.63 1.2 3.302 2.25.67 1.05 1.005 2.353 1.005 3.908v1.318c0 .57.113 1.01.338 1.325.226.315.6.502 1.12.56l.642.09v3.132h-2.687c-1.697 0-2.89-.457-3.577-1.37-.688-.914-1.032-2.094-1.032-3.542v-1.477c0-1.257-.335-2.245-1.006-2.963-.67-.718-1.616-1.094-2.838-1.13h-4.254v6.834l2.777.534v3.115H52.623V59.17l2.76-.533V40.04l-2.76-.534v-3.132h11.64zm-3.684 11.424h3.595c1.448 0 2.533-.31 3.257-.927.724-.616 1.085-1.506 1.085-2.67 0-1.162-.358-2.09-1.076-2.784-.72-.695-1.778-1.042-3.178-1.042h-3.684v7.42zm17.103-8.294v-3.132h10.732v3.132l-2.777.534v7.474h10.57V40.04l-2.775-.534v-3.132h10.73v3.132l-2.775.534v18.597l2.776.534v3.115H93.43V59.17l2.776-.533v-7.12h-10.57v7.12l2.776.534v3.115h-10.73V59.17l2.757-.533V40.04l-2.76-.534zm38.92-3.132v3.132l-2.775.534v13.525c0 1.708.46 2.987 1.38 3.835.918.848 2.18 1.272 3.78 1.272 1.626 0 2.9-.42 3.827-1.263.925-.843 1.388-2.125 1.388-3.845V40.04l-2.76-.534v-3.132h10.733v3.132l-2.777.534v13.525c0 2.907-.958 5.15-2.874 6.727-1.916 1.578-4.428 2.367-7.536 2.367-3.097 0-5.597-.79-7.5-2.368-1.906-1.578-2.858-3.82-2.858-6.727V40.04l-2.758-.534v-3.132h10.73zm36.786 8.275h-3.898l-.676-3.56c-.45-.285-1.11-.534-1.975-.748-.866-.213-1.786-.32-2.76-.32-1.422 0-2.523.3-3.3.9-.777.598-1.166 1.372-1.166 2.32 0 .88.408 1.6 1.22 2.163.813.564 2.216 1.16 4.21 1.79 2.86.794 5.027 1.844 6.504 3.15 1.477 1.304 2.215 3.018 2.215 5.142 0 2.218-.878 3.968-2.634 5.25-1.756 1.28-4.07 1.922-6.94 1.922-2.053 0-3.907-.328-5.562-.98-1.655-.653-3.034-1.554-4.138-2.705v-5.41h4.022l.552 3.684c.522.426 1.23.78 2.126 1.058.896.278 1.896.418 3 .418 1.423 0 2.505-.29 3.247-.872.74-.582 1.112-1.36 1.112-2.332 0-.996-.353-1.797-1.06-2.402-.705-.605-1.94-1.175-3.71-1.708-3.072-.89-5.397-1.946-6.975-3.168-1.578-1.222-2.367-2.895-2.367-5.02 0-2.1.89-3.816 2.67-5.15 1.78-1.335 4.015-2.02 6.708-2.056 1.995 0 3.81.302 5.447.907s3.013 1.412 4.13 2.42v5.304zm11.656 17.635v-3.4l8.382-8.986c1.21-1.39 2.07-2.56 2.58-3.516.51-.955.766-1.842.766-2.66 0-1.092-.294-1.985-.88-2.68-.588-.693-1.422-1.04-2.5-1.04-1.2 0-2.11.406-2.733 1.22-.623.812-.934 1.894-.934 3.247h-5.054l-.037-.106c-.06-2.337.71-4.315 2.305-5.935 1.595-1.62 3.746-2.43 6.45-2.43 2.67 0 4.77.694 6.3 2.082 1.53 1.388 2.296 3.24 2.296 5.553 0 1.566-.43 3.013-1.29 4.342-.86 1.33-2.287 3.06-4.28 5.196l-4.61 5.037.036.09h6.727l.214-2.564h3.952v6.55h-17.69zm38.102-10.09c0 3.428-.786 6.03-2.358 7.803-1.572 1.774-3.7 2.66-6.38 2.66-2.705 0-4.846-.886-6.424-2.66-1.578-1.773-2.367-4.375-2.367-7.803v-5.713c0-3.417.786-6.018 2.358-7.804 1.572-1.785 3.704-2.678 6.397-2.678 2.682 0 4.814.893 6.398 2.678 1.584 1.786 2.376 4.387 2.376 7.804v5.713zm-5.18-6.247c0-2.052-.307-3.556-.924-4.51-.617-.956-1.507-1.434-2.67-1.434-1.174 0-2.064.475-2.67 1.424-.604.95-.907 2.456-.907 4.52v6.745c0 2.088.306 3.607.917 4.556.61.948 1.51 1.422 2.696 1.422 1.163 0 2.047-.474 2.652-1.423.605-.95.907-2.47.907-4.557v-6.745zm7.903 13.223l4.378-.533V41.09h-4.432v-2.972l9.61-1.744v22.263l4.378.534v3.115h-13.933V59.17zM240 40.38c-2.776 3.25-4.672 6.282-5.686 9.094-1.014 2.812-1.74 6.205-2.18 10.18l-.25 2.633h-5.196l.25-2.634c.403-3.807 1.27-7.304 2.598-10.49 1.33-3.185 3.15-6.113 5.463-8.782h-9.13l-.196 2.563h-3.986v-6.566H240v4.004z"/>
  </g>
</svg>
