<svg class="logo-white" xmlns="http://www.w3.org/2000/svg" viewBox="0 0 307.3 359.9">
  <g fill="#fff">
    <path class="st0" d="M226.2 73.9S155.1 23.6 155.1 0c0 23.6-74.5 73.9-74.5 73.9S3.3 118.1 0 200.4c16-75.9 291.4-70.8 307.3 2.9-3.2-79.6-80.5-129-81.1-129.4z"/>
    <path class="st0" d="M32 213.5v3h11.2c3.1 0 5.6-1 7.5-2.9 2-1.9 3-4.4 3-7.5V202c0-3.1-1-5.6-3-7.5-2-1.9-4.5-2.9-7.5-2.9H32v3l2.7.5V213l-2.7.5zm7.6-18.1H43c1.8 0 3.2.6 4.2 1.8 1 1.2 1.5 2.8 1.5 4.7v4.2c0 2-.5 3.5-1.5 4.7-1 1.2-2.4 1.8-4.2 1.8h-3.3v-17.2z"/>
    <path class="st0" d="M56.2 213.5v3h10.3v-3l-2.7-.5v-6.6h4.1c1.2 0 2.1.4 2.7 1.1.6.7 1 1.6 1 2.9v1.4c0 1.4.3 2.5 1 3.4.7.9 1.8 1.3 3.4 1.3h2.6v-3l-.6-.1c-.5-.1-.9-.2-1.1-.5-.2-.3-.3-.7-.3-1.3v-1.3c0-1.5-.3-2.8-1-3.8-.6-1-1.7-1.7-3.2-2.2 1.3-.6 2.3-1.3 3-2.2.7-.9 1-2 1-3.3 0-2.3-.8-4.1-2.4-5.4-1.6-1.3-3.8-1.9-6.7-1.9H56v3l2.7.5v18l-2.5.5zm7.6-18.1h3.5c1.3 0 2.4.3 3.1 1 .7.7 1 1.6 1 2.7s-.3 2-1 2.6-1.7.9-3.1.9h-3.5v-7.2z"/>
    <path class="st0" d="M90.3 194.6v-3H80v3l2.7.5v13c0 2.8.9 5 2.8 6.5 1.8 1.5 4.2 2.3 7.2 2.3s5.4-.8 7.3-2.3c1.8-1.5 2.8-3.7 2.8-6.5v-13l2.7-.5v-3H95v3l2.7.5v13c0 1.7-.4 2.9-1.3 3.7-.9.8-2.1 1.2-3.7 1.2-1.5 0-2.8-.4-3.6-1.2-.9-.8-1.3-2-1.3-3.7v-13l2.5-.5z"/>
    <path class="st0" d="M106.8 213.5v3h10.3v-3l-2.7-.5v-5.5h4.2c2.9 0 5.1-.7 6.8-2.2 1.7-1.5 2.5-3.4 2.5-5.8s-.8-4.3-2.5-5.8-3.9-2.2-6.8-2.2H106.7v3l2.7.5v18l-2.6.5zm7.7-18.1h4.2c1.4 0 2.4.4 3.2 1.2.7.8 1.1 1.8 1.1 3s-.4 2.1-1.1 2.9c-.7.8-1.8 1.1-3.2 1.1h-4.2v-8.2z"/>
    <path class="st0" d="M139.7 191.5h-5.1l-7.6 21.7-1.8.3v3h8.5v-3l-1.7-.3 1.1-3.4h8.1l1.1 3.4-1.7.3v3h8.5v-3l-1.8-.3-7.6-21.7zm-5.4 14.6l2.8-8.8h.1l2.8 8.8h-5.7z"/>
    <path class="st0" d="M150.7 213.5v3h18.8v-7h-3.9l-.2 3.2h-7.1v-17.6l2.7-.5v-3.1h-10.3v3.1l2.6.5V213z"/>
    <path class="st0" d="M186.5 197.4c1.2-1.6 2.8-2.4 5-2.4 1 0 1.9.1 2.6.4.7.3 1.4.7 1.9 1.2l.5 3.3h3.7V195c-1-1.2-2.3-2.1-3.9-2.8-1.6-.7-3.3-1.1-5.2-1.1-3.4 0-6.1 1.2-8.2 3.5-2.1 2.3-3.2 5.3-3.2 8.9v.8c0 3.6 1.1 6.6 3.2 8.9 2.1 2.3 4.9 3.5 8.2 3.5 1.9 0 3.7-.3 5.2-1 1.6-.7 2.8-1.6 3.8-2.8V208h-3.7l-.5 3.3c-.4.5-1.1.9-1.9 1.2-.8.3-1.7.4-2.7.4-2.1 0-3.8-.8-4.9-2.4-1.2-1.6-1.7-3.6-1.7-6.2v-.9c.1-2.4.7-4.4 1.8-6z"/>
    <path class="st0" d="M216.8 191.5h-5.1l-7.6 21.7-1.8.3v3h8.5v-3l-1.7-.3 1.1-3.4h8.1l1.1 3.4-1.7.3v3h8.5v-3l-1.8-.3-7.6-21.7zm-5.4 14.6l2.8-8.8h.1l2.8 8.8h-5.7z"/>
    <path class="st0" d="M227.8 213.5v3h10.3v-3l-2.6-.5v-3.9l-.5-11h.1l6.6 18.4h3.4l6.7-18.5h.1l-.5 11.1v3.9l-2.6.5v3h10.3v-3l-2.7-.5v-17.9l2.7-.5v-3.1h-9.2l-6.4 18.4h-.1l-6.4-18.4h-9.2v3.1l2.7.5V213z"/>
    <path class="st0" d="M260.9 213.5v3h10.3v-3l-2.7-.5v-5.5h4.2c2.9 0 5.1-.7 6.8-2.2 1.7-1.5 2.5-3.4 2.5-5.8s-.8-4.3-2.5-5.8-3.9-2.2-6.8-2.2H260.8v3l2.7.5v18l-2.6.5zm7.6-18.1h4.2c1.4 0 2.4.4 3.2 1.2.7.8 1.1 1.8 1.1 3s-.4 2.1-1.1 2.9c-.7.8-1.8 1.1-3.2 1.1h-4.2v-8.2z"/>
    <path class="st0" d="M32 259.9h9.2v-3.2l-1.9-.3 1.2-3.7h8.7l1.2 3.7-1.9.3v3.2h9.2v-3.2l-1.9-.3-8.2-23.5h-5.5l-8.2 23.5-1.9.3v3.2zm12.8-20.8h.1l3 9.5h-6.2l3.1-9.5z"/>
    <path class="st0" d="M69.4 232.9l-8.2 23.5-1.9.3v3.2h9.2v-3.2l-1.9-.3 1.2-3.7h8.7l1.2 3.7-1.9.3v3.2H85v-3.2l-1.9-.3-8.2-23.5h-5.5zm-.4 15.7l3-9.5h.1l3 9.5H69z"/>
    <path class="st0" d="M106.1 235c-1.7-1.4-4.1-2.1-7.2-2.1H86.7v3.3l2.9.6v19.4l-2.9.6v3.2H98v-3.2l-2.9-.6V249h4.4c1.3 0 2.3.4 3 1.2.7.7 1 1.8 1 3.1v1.5c0 1.5.4 2.7 1.1 3.7.7 1 2 1.4 3.7 1.4h2.8v-3.3l-.7-.1c-.5-.1-.9-.3-1.2-.6-.2-.3-.4-.8-.4-1.4v-1.4c0-1.6-.3-3-1-4.1-.7-1.1-1.8-1.9-3.4-2.3 1.4-.6 2.5-1.4 3.2-2.4.7-1 1.1-2.2 1.1-3.5.1-2.5-.8-4.4-2.6-5.8zm-3.9 8.8c-.8.6-1.9 1-3.4 1h-3.7v-7.7h3.8c1.5 0 2.6.4 3.3 1.1.7.7 1.1 1.7 1.1 2.9.1 1.2-.3 2.1-1.1 2.7z"/>
    <path class="st0" d="M140.5 236.2v-3.3H129.3v3.3l2.9.5v7.8h-11v-7.8l2.9-.5v-3.3h-11.2v3.3l2.9.5v19.4l-2.9.5v3.3h11.2v-3.3l-2.9-.5v-7.4h11v7.4l-2.9.5v3.3h11.2v-3.3l-2.9-.5v-19.4z"/>
    <path class="st0" d="M145.1 232.9h-2.9v3.3l2.9.6v14.1c0 3 1 5.4 3 7 2 1.6 4.6 2.5 7.8 2.5s5.9-.8 7.9-2.5c2-1.6 3-4 3-7v-14.1l2.9-.6v-3.3h-11.2v3.3l2.9.6v14.1c0 1.8-.5 3.1-1.4 4-1 .9-2.3 1.3-4 1.3-1.7 0-3-.4-3.9-1.3-1-.9-1.4-2.2-1.4-4v-14.1l2.9-.6v-3.3h-8.5z"/>
    <path class="st0" d="M172 240c0 2.2.8 4 2.5 5.2 1.6 1.3 4.1 2.4 7.3 3.3 1.8.6 3.1 1.1 3.9 1.8.7.6 1.1 1.5 1.1 2.5s-.4 1.8-1.2 2.4c-.8.6-1.9.9-3.4.9-1.1 0-2.2-.1-3.1-.4-.9-.3-1.7-.7-2.2-1.1l-.6-3.8h-4.2v5.6c1.1 1.2 2.6 2.1 4.3 2.8 1.7.7 3.7 1 5.8 1 3 0 5.4-.7 7.2-2 1.8-1.3 2.7-3.2 2.7-5.5 0-2.2-.8-4-2.3-5.4-1.5-1.4-3.8-2.5-6.8-3.3-2.1-.7-3.5-1.3-4.4-1.9-.8-.6-1.3-1.3-1.3-2.3 0-1 .4-1.8 1.2-2.4.8-.6 2-.9 3.4-.9 1 0 2 .1 2.9.3.9.2 1.6.5 2.1.8l.7 3.7h4.1V236c-1.2-1.1-2.6-1.9-4.3-2.5-1.7-.6-3.6-.9-5.7-.9-2.8 0-5.1.8-7 2.1-1.8 1.4-2.7 3.1-2.7 5.3z"/>
    <path class="st0" d="M212.6 247l-8.7 9.4v3.5h18.4v-6.8h-4.1l-.2 2.7h-7v-.1l4.8-5.2c2.1-2.2 3.6-4 4.5-5.4.9-1.4 1.3-2.9 1.3-4.5 0-2.4-.8-4.3-2.4-5.8-1.6-1.4-3.8-2.2-6.6-2.2s-5.1.8-6.7 2.5c-1.7 1.7-2.5 3.7-2.4 6.2v.1h5.3c0-1.4.3-2.5 1-3.4.6-.8 1.6-1.3 2.8-1.3 1.1 0 2 .4 2.6 1.1.6.7.9 1.7.9 2.8 0 .9-.3 1.8-.8 2.8s-1.4 2.1-2.7 3.6z"/>
    <path class="st0" d="M225.3 243.4v6c0 3.6.8 6.3 2.5 8.1 1.6 1.8 3.9 2.8 6.7 2.8 2.8 0 5-.9 6.6-2.8 1.6-1.8 2.5-4.6 2.5-8.1v-6c0-3.6-.8-6.3-2.5-8.1-1.6-1.9-3.9-2.8-6.7-2.8-2.8 0-5 .9-6.7 2.8-1.5 1.9-2.4 4.6-2.4 8.1zm5.4-.5c0-2.1.3-3.7.9-4.7.6-1 1.6-1.5 2.8-1.5 1.2 0 2.1.5 2.8 1.5.6 1 1 2.6 1 4.7v7c0 2.2-.3 3.8-.9 4.7-.6 1-1.6 1.5-2.8 1.5-1.2 0-2.2-.5-2.8-1.5-.6-1-1-2.6-1-4.7v-7z"/>
    <path class="st0" d="M256.4 232.9l-10 1.8v3.1h4.6v18.3l-4.6.5v3.3h14.5v-3.3l-4.5-.5z"/>
    <path class="st0" d="M268.4 257.1l-.3 2.7h5.4l.3-2.7c.5-4.1 1.2-7.7 2.3-10.6 1.1-2.9 3-6.1 5.9-9.5v-4.2h-19.1v6.8h4.2l.2-2.7h9.5c-2.4 2.8-4.3 5.8-5.7 9.1-1.4 3.5-2.3 7.2-2.7 11.1z"/>
    <path class="st0" d="M252.9 316.1H240v-13.5h-2.5v13.5h-12.4v-13.5h-2.5v13.5h-12.7v-13.5h-2.5v13.5h-13v-13.5h-2.5v13.5h-13.1v-13.5h-2.5v13.5h-12.9v-13.5h-2.5v13.5h-12.4v-13.5H146v13.5h-12.7v-13.5h-2.5v13.5h-13.3v-13.5H115v13.5h-13.1v-13.5h-2.5v13.5H86.3v-13.5h-2.5v13.5H71.4v-13.5h-2.5v13.5H56.2v-13.5h-2.5V324c.8.7 1.7 1.4 2.5 2.1v-8h12.7v13.1h2.5v-13.1h12.4v13.1h2.5v-13.1h12.9v13.1h2.5v-13.1h13.1v13.1h2.5v-13.1h13.3v13.1h2.5v-13.1h12.7v13.1h2.5v-13.1h12.4v13.1h2.5v-13.1h12.9v13.1h2.5v-13.1h13.1v13.1h2.5v-13.1h13v13.1h2.5v-13.1h12.7v13.1h2.5v-13.1h12.4v13.1h2.5v-13.1h12.9v6.2c.8-.7 1.7-1.4 2.5-2.1v-19.6h-2.5v13.5z"/>
    <path class="st0" d="M81.4 342.6h144.2c2.4-1.3 4.8-2.6 7.2-4H74.2c2.4 1.4 4.8 2.7 7.2 4z"/>
    <path class="st0" d="M207.2 350.7c.8-.3 1.7-.6 2.5-.9v-3.4h-2.5v4.3z"/>
    <path class="st0" d="M191.8 355.4c.8-.2 1.7-.4 2.5-.7v-8.1h-2.5v8.8z"/>
    <path class="st0" d="M70.5 336.3h165.9c1.2-.7 2.3-1.5 3.4-2.2H67.1c1.1.7 2.2 1.5 3.4 2.2z"/>
    <path class="st0" d="M94.8 348.9H156v-2.5H89.3c1.8.9 3.7 1.7 5.5 2.5z"/>
    <path class="st0" d="M107.5 353.6h48.4v-2.5h-55.6c2.3.9 4.8 1.7 7.2 2.5z"/>
    <path class="st0" d="M176.3 358.5c.8-.1 1.7-.3 2.5-.4v-11.6h-2.5v12z"/>
    <path class="st0" d="M161 359.9l2.5-.1v-13.4H161z"/>
    <path class="st0" d="M22.6 288.5h261.7l3.3-5.4H19.4c1 1.8 2.1 3.6 3.2 5.4z"/>
    <path class="st0" d="M29.7 298.8h247.5c2.1-2.8 4.1-5.6 6-8.6H23.7c1.9 2.9 3.9 5.8 6 8.6z"/>
  </g>
</svg>
